<mxfile host="app.diagrams.net" modified="2023-11-10T13:26:15.497Z" agent="Mozilla/5.0 (X11; Ubuntu; Linux x86_64; rv:109.0) Gecko/20100101 Firefox/118.0" etag="1RlSlt-PbkXiUyOo9BLk" version="22.1.0" type="device">
  <diagram name="Page-1" id="PTWU9Sx0HCd1VzEPq-0c">
    <mxGraphModel dx="509" dy="359" grid="1" gridSize="10" guides="1" tooltips="1" connect="1" arrows="1" fold="1" page="1" pageScale="1" pageWidth="850" pageHeight="1100" math="0" shadow="0">
      <root>
        <mxCell id="0" />
        <mxCell id="1" parent="0" />
        <mxCell id="fU75MnoKq9Yol1tYOXQZ-1" value="" style="endArrow=none;html=1;rounded=0;" edge="1" parent="1" source="fU75MnoKq9Yol1tYOXQZ-9">
          <mxGeometry width="50" height="50" relative="1" as="geometry">
            <mxPoint x="400" y="400" as="sourcePoint" />
            <mxPoint x="400" y="320" as="targetPoint" />
          </mxGeometry>
        </mxCell>
        <mxCell id="fU75MnoKq9Yol1tYOXQZ-2" value="" style="endArrow=none;html=1;rounded=0;" edge="1" parent="1" source="fU75MnoKq9Yol1tYOXQZ-10">
          <mxGeometry width="50" height="50" relative="1" as="geometry">
            <mxPoint x="400" y="320" as="sourcePoint" />
            <mxPoint x="440" y="200" as="targetPoint" />
          </mxGeometry>
        </mxCell>
        <mxCell id="fU75MnoKq9Yol1tYOXQZ-3" value="" style="endArrow=none;html=1;rounded=0;" edge="1" parent="1" source="fU75MnoKq9Yol1tYOXQZ-11">
          <mxGeometry width="50" height="50" relative="1" as="geometry">
            <mxPoint x="440" y="200" as="sourcePoint" />
            <mxPoint x="520" y="200" as="targetPoint" />
          </mxGeometry>
        </mxCell>
        <mxCell id="fU75MnoKq9Yol1tYOXQZ-4" value="" style="endArrow=none;html=1;rounded=0;" edge="1" parent="1" source="fU75MnoKq9Yol1tYOXQZ-12" target="fU75MnoKq9Yol1tYOXQZ-20">
          <mxGeometry width="50" height="50" relative="1" as="geometry">
            <mxPoint x="520" y="200" as="sourcePoint" />
            <mxPoint x="600" y="200" as="targetPoint" />
          </mxGeometry>
        </mxCell>
        <mxCell id="fU75MnoKq9Yol1tYOXQZ-9" value="" style="shape=ellipse;fillColor=#0065FF;strokeColor=none;html=1;sketch=0;" vertex="1" parent="1">
          <mxGeometry x="395" y="395" width="10" height="10" as="geometry" />
        </mxCell>
        <mxCell id="fU75MnoKq9Yol1tYOXQZ-10" value="" style="shape=ellipse;fillColor=#0065FF;strokeColor=none;html=1;sketch=0;" vertex="1" parent="1">
          <mxGeometry x="395" y="315" width="10" height="10" as="geometry" />
        </mxCell>
        <mxCell id="fU75MnoKq9Yol1tYOXQZ-11" value="" style="shape=ellipse;fillColor=#0065FF;strokeColor=none;html=1;sketch=0;" vertex="1" parent="1">
          <mxGeometry x="435" y="195" width="10" height="10" as="geometry" />
        </mxCell>
        <mxCell id="fU75MnoKq9Yol1tYOXQZ-12" value="" style="shape=ellipse;fillColor=#0065FF;strokeColor=none;html=1;sketch=0;" vertex="1" parent="1">
          <mxGeometry x="515" y="195" width="10" height="10" as="geometry" />
        </mxCell>
        <mxCell id="fU75MnoKq9Yol1tYOXQZ-14" value="" style="shape=ellipse;fillColor=#0065FF;strokeColor=none;html=1;sketch=0;" vertex="1" parent="1">
          <mxGeometry x="595" y="170" width="10" height="10" as="geometry" />
        </mxCell>
        <mxCell id="fU75MnoKq9Yol1tYOXQZ-15" value="" style="endArrow=none;html=1;rounded=0;entryX=0.5;entryY=1;entryDx=0;entryDy=0;" edge="1" parent="1" target="fU75MnoKq9Yol1tYOXQZ-14">
          <mxGeometry width="50" height="50" relative="1" as="geometry">
            <mxPoint x="600" y="200" as="sourcePoint" />
            <mxPoint x="450" y="350" as="targetPoint" />
          </mxGeometry>
        </mxCell>
        <mxCell id="fU75MnoKq9Yol1tYOXQZ-16" value="" style="endArrow=none;html=1;rounded=0;" edge="1" parent="1">
          <mxGeometry width="50" height="50" relative="1" as="geometry">
            <mxPoint x="600" y="200" as="sourcePoint" />
            <mxPoint x="640" y="200" as="targetPoint" />
          </mxGeometry>
        </mxCell>
        <mxCell id="fU75MnoKq9Yol1tYOXQZ-17" value="" style="endArrow=none;html=1;rounded=0;" edge="1" parent="1">
          <mxGeometry width="50" height="50" relative="1" as="geometry">
            <mxPoint x="640" y="180" as="sourcePoint" />
            <mxPoint x="640" y="220" as="targetPoint" />
          </mxGeometry>
        </mxCell>
        <mxCell id="fU75MnoKq9Yol1tYOXQZ-18" value="" style="endArrow=none;html=1;rounded=0;" edge="1" parent="1">
          <mxGeometry width="50" height="50" relative="1" as="geometry">
            <mxPoint x="640" y="180" as="sourcePoint" />
            <mxPoint x="660" y="180" as="targetPoint" />
          </mxGeometry>
        </mxCell>
        <mxCell id="fU75MnoKq9Yol1tYOXQZ-19" value="" style="endArrow=none;html=1;rounded=0;" edge="1" parent="1">
          <mxGeometry width="50" height="50" relative="1" as="geometry">
            <mxPoint x="640" y="220" as="sourcePoint" />
            <mxPoint x="660" y="220" as="targetPoint" />
          </mxGeometry>
        </mxCell>
        <mxCell id="fU75MnoKq9Yol1tYOXQZ-20" value="" style="shape=ellipse;fillColor=#0065FF;strokeColor=none;html=1;sketch=0;" vertex="1" parent="1">
          <mxGeometry x="595" y="195" width="10" height="10" as="geometry" />
        </mxCell>
        <mxCell id="fU75MnoKq9Yol1tYOXQZ-21" value="Camera" style="text;html=1;strokeColor=none;fillColor=none;align=center;verticalAlign=middle;whiteSpace=wrap;rounded=0;" vertex="1" parent="1">
          <mxGeometry x="570" y="150" width="60" height="20" as="geometry" />
        </mxCell>
        <mxCell id="fU75MnoKq9Yol1tYOXQZ-22" value="Wrist" style="text;html=1;strokeColor=none;fillColor=none;align=center;verticalAlign=middle;whiteSpace=wrap;rounded=0;" vertex="1" parent="1">
          <mxGeometry x="570" y="205" width="60" height="20" as="geometry" />
        </mxCell>
        <mxCell id="fU75MnoKq9Yol1tYOXQZ-23" value="" style="shape=ellipse;fillColor=#0065FF;strokeColor=none;html=1;sketch=0;" vertex="1" parent="1">
          <mxGeometry x="660" y="195" width="10" height="10" as="geometry" />
        </mxCell>
        <mxCell id="fU75MnoKq9Yol1tYOXQZ-25" value="End Effector" style="text;html=1;strokeColor=none;fillColor=none;align=center;verticalAlign=middle;whiteSpace=wrap;rounded=0;" vertex="1" parent="1">
          <mxGeometry x="670" y="187.5" width="50" height="25" as="geometry" />
        </mxCell>
        <mxCell id="fU75MnoKq9Yol1tYOXQZ-27" value="Base" style="text;html=1;strokeColor=none;fillColor=none;align=center;verticalAlign=middle;whiteSpace=wrap;rounded=0;" vertex="1" parent="1">
          <mxGeometry x="405" y="392.5" width="40" height="15" as="geometry" />
        </mxCell>
        <mxCell id="fU75MnoKq9Yol1tYOXQZ-28" value="" style="shape=ellipse;fillColor=#0065FF;strokeColor=none;html=1;sketch=0;" vertex="1" parent="1">
          <mxGeometry x="655" y="350" width="10" height="10" as="geometry" />
        </mxCell>
        <mxCell id="fU75MnoKq9Yol1tYOXQZ-29" value="Object" style="text;html=1;strokeColor=none;fillColor=none;align=center;verticalAlign=middle;whiteSpace=wrap;rounded=0;" vertex="1" parent="1">
          <mxGeometry x="630" y="330" width="60" height="20" as="geometry" />
        </mxCell>
      </root>
    </mxGraphModel>
  </diagram>
</mxfile>
